<svg width="49" height="16" viewBox="0 0 49 16" fill="none" xmlns="http://www.w3.org/2000/svg">
<path d="M6.91406 2.04102L2.20703 15H0.283203L5.70312 0.78125H6.94336L6.91406 2.04102ZM10.8594 15L6.14258 2.04102L6.11328 0.78125H7.35352L12.793 15H10.8594ZM10.6152 9.73633V11.2793H2.62695V9.73633H10.6152ZM17.1484 13.3691L20.0391 4.43359H21.8848L18.0859 15H16.875L17.1484 13.3691ZM14.7363 4.43359L17.7148 13.418L17.9199 15H16.709L12.8809 4.43359H14.7363ZM25.5859 4.43359V15H23.7695V4.43359H25.5859ZM23.6328 1.63086C23.6328 1.33789 23.7207 1.09049 23.8965 0.888672C24.0788 0.686849 24.3457 0.585938 24.6973 0.585938C25.0423 0.585938 25.306 0.686849 25.4883 0.888672C25.6771 1.09049 25.7715 1.33789 25.7715 1.63086C25.7715 1.91081 25.6771 2.15169 25.4883 2.35352C25.306 2.54883 25.0423 2.64648 24.6973 2.64648C24.3457 2.64648 24.0788 2.54883 23.8965 2.35352C23.7207 2.15169 23.6328 1.91081 23.6328 1.63086ZM28.0078 9.83398V9.60938C28.0078 8.84766 28.1185 8.14128 28.3398 7.49023C28.5612 6.83268 28.8802 6.26302 29.2969 5.78125C29.7135 5.29297 30.2181 4.91536 30.8105 4.64844C31.403 4.375 32.0671 4.23828 32.8027 4.23828C33.5449 4.23828 34.2122 4.375 34.8047 4.64844C35.4036 4.91536 35.9115 5.29297 36.3281 5.78125C36.7513 6.26302 37.0736 6.83268 37.2949 7.49023C37.5163 8.14128 37.627 8.84766 37.627 9.60938V9.83398C37.627 10.5957 37.5163 11.3021 37.2949 11.9531C37.0736 12.6042 36.7513 13.1738 36.3281 13.6621C35.9115 14.1439 35.4069 14.5215 34.8145 14.7949C34.2285 15.0618 33.5645 15.1953 32.8223 15.1953C32.0801 15.1953 31.4128 15.0618 30.8203 14.7949C30.2279 14.5215 29.7201 14.1439 29.2969 13.6621C28.8802 13.1738 28.5612 12.6042 28.3398 11.9531C28.1185 11.3021 28.0078 10.5957 28.0078 9.83398ZM29.8145 9.60938V9.83398C29.8145 10.3613 29.8763 10.8594 30 11.3281C30.1237 11.7904 30.3092 12.2005 30.5566 12.5586C30.8105 12.9167 31.1263 13.1999 31.5039 13.4082C31.8815 13.61 32.321 13.7109 32.8223 13.7109C33.3171 13.7109 33.75 13.61 34.1211 13.4082C34.4987 13.1999 34.8112 12.9167 35.0586 12.5586C35.306 12.2005 35.4915 11.7904 35.6152 11.3281C35.7454 10.8594 35.8105 10.3613 35.8105 9.83398V9.60938C35.8105 9.08854 35.7454 8.59701 35.6152 8.13477C35.4915 7.66602 35.3027 7.2526 35.0488 6.89453C34.8014 6.52995 34.4889 6.24349 34.1113 6.03516C33.7402 5.82682 33.304 5.72266 32.8027 5.72266C32.3079 5.72266 31.8717 5.82682 31.4941 6.03516C31.123 6.24349 30.8105 6.52995 30.5566 6.89453C30.3092 7.2526 30.1237 7.66602 30 8.13477C29.8763 8.59701 29.8145 9.08854 29.8145 9.60938ZM41.6992 6.68945V15H39.8926V4.43359H41.6016L41.6992 6.68945ZM41.2695 9.31641L40.5176 9.28711C40.5241 8.56445 40.6315 7.89714 40.8398 7.28516C41.0482 6.66667 41.3411 6.12956 41.7188 5.67383C42.0964 5.2181 42.5456 4.86654 43.0664 4.61914C43.5938 4.36523 44.1764 4.23828 44.8145 4.23828C45.3353 4.23828 45.804 4.3099 46.2207 4.45312C46.6374 4.58984 46.9922 4.8112 47.2852 5.11719C47.5846 5.42318 47.8125 5.82031 47.9688 6.30859C48.125 6.79036 48.2031 7.37956 48.2031 8.07617V15H46.3867V8.05664C46.3867 7.50326 46.3053 7.06055 46.1426 6.72852C45.9798 6.38997 45.7422 6.14583 45.4297 5.99609C45.1172 5.83984 44.7331 5.76172 44.2773 5.76172C43.8281 5.76172 43.418 5.85612 43.0469 6.04492C42.6823 6.23372 42.3665 6.49414 42.0996 6.82617C41.8392 7.1582 41.6341 7.53906 41.4844 7.96875C41.3411 8.39193 41.2695 8.84115 41.2695 9.31641Z" fill="#22202E"/>
</svg>
